<svg width="64" height="64" viewBox="0 0 64 64" fill="none" xmlns="http://www.w3.org/2000/svg">
<path d="M32.0003 33.888L18.011 47.8774C17.7621 48.1263 17.4563 48.2596 17.0936 48.2774C16.731 48.2952 16.4074 48.1618 16.123 47.8774C15.8385 47.5929 15.6963 47.2783 15.6963 46.9334C15.6963 46.5885 15.8385 46.2738 16.123 45.9894L30.1123 32L16.123 18.0107C15.8741 17.7618 15.7407 17.456 15.723 17.0934C15.7052 16.7307 15.8385 16.4072 16.123 16.1227C16.4074 15.8383 16.7221 15.696 17.067 15.696C17.4118 15.696 17.7265 15.8383 18.011 16.1227L32.0003 30.112L45.9896 16.1227C46.2385 15.8738 46.5452 15.7405 46.9096 15.7227C47.2705 15.7049 47.5932 15.8383 47.8776 16.1227C48.1621 16.4072 48.3043 16.7218 48.3043 17.0667C48.3043 17.4116 48.1621 17.7263 47.8776 18.0107L33.8883 32L47.8776 45.9894C48.1265 46.2383 48.2598 46.5449 48.2776 46.9094C48.2954 47.2703 48.1621 47.5929 47.8776 47.8774C47.5932 48.1618 47.2785 48.304 46.9336 48.304C46.5887 48.304 46.2741 48.1618 45.9896 47.8774L32.0003 33.888Z" fill="#3E5E8E"/>
</svg>
