<svg width="24" height="24" viewBox="0 0 24 24" fill="none" xmlns="http://www.w3.org/2000/svg">
<path d="M16.4519 15.714V8.287C16.4519 8.04167 16.3706 7.84567 16.2079 7.699C16.0459 7.55234 15.8566 7.479 15.6399 7.479C15.5719 7.479 15.5009 7.48834 15.4269 7.507C15.3536 7.525 15.2832 7.55267 15.2159 7.59L9.3729 11.323C9.2489 11.4097 9.15557 11.509 9.09291 11.621C9.03091 11.7323 8.9999 11.8587 8.9999 12C8.9999 12.1413 9.03091 12.2677 9.09291 12.379C9.1549 12.4903 9.24824 12.5897 9.3729 12.677L15.2159 16.41C15.2832 16.4467 15.3542 16.4743 15.4289 16.493C15.5036 16.5117 15.5746 16.521 15.6419 16.521C15.8592 16.521 16.0486 16.4477 16.2099 16.301C16.3712 16.1543 16.4519 15.9587 16.4519 15.714Z" fill="#3E5E8E"/>
</svg>
