<svg width="24" height="24" viewBox="0 0 24 24" fill="none" xmlns="http://www.w3.org/2000/svg">
<path d="M9 15.714V8.287C9 8.04167 9.08133 7.84567 9.244 7.699C9.406 7.55234 9.59533 7.479 9.812 7.479C9.88 7.479 9.951 7.48834 10.025 7.507C10.0983 7.525 10.1687 7.55267 10.236 7.59L16.079 11.323C16.203 11.4097 16.2963 11.509 16.359 11.621C16.421 11.7323 16.452 11.8587 16.452 12C16.452 12.1413 16.421 12.2677 16.359 12.379C16.297 12.4903 16.2037 12.5897 16.079 12.677L10.236 16.41C10.1687 16.4467 10.0977 16.4743 10.023 16.493C9.94833 16.5117 9.87733 16.521 9.81 16.521C9.59267 16.521 9.40333 16.4477 9.242 16.301C9.08067 16.1543 9 15.9587 9 15.714Z" fill="#8AFFFF"/>
</svg>
